<svg xmlns="http://www.w3.org/2000/svg" viewBox="0 0 208 160">
  <ellipse cx="104" cy="132" rx="84" ry="18" fill="#2A1409" opacity=".25"/>
  <path d="M40 108 q4 20 10 26 q6 -4 4 -24z" fill="#FFF3C4"/>
  <path d="M96 110 q2 22 8 28 q6 -6 2 -26z" fill="#FFF3C4"/>
  <path d="M152 108 q4 18 10 22 q6 -4 2 -22z" fill="#FFF3C4"/>
  <path d="M28 104 q76 -28 152 0 q-8 24 -76 24 q-68 0 -76 -24z" fill="#F0D28C"/>
  <path d="M32 96 q72 24 144 0 l-4 12 q-68 22 -136 0z" fill="#FFF3C4"/>
  <path d="M36 92 q20 12 32 6 M80 100 q16 8 28 2 M128 100 q16 6 28 -2"
        stroke="#EAD98F" stroke-width="5" fill="none" stroke-linecap="round"/>
  <path d="M24 80 q80 -44 160 0 q-12 20 -80 20 q-68 0 -80 -20z" fill="#F5DFA0"/>
  <ellipse cx="76" cy="60" rx="8" ry="5" fill="#E8C070"/>
  <ellipse cx="124" cy="54" rx="7" ry="4" fill="#E8C070"/>
</svg>
